<svg width="50" height="50" viewBox="0 0 50 50" fill="none" xmlns="http://www.w3.org/2000/svg">
<g id="zondicons:location" clip-path="url(#clip0_23_43)">
<path id="Vector" d="M25 50C25 50 7.5 27.175 7.5 17.5C7.5 15.2019 7.95265 12.9262 8.83211 10.803C9.71157 8.67984 11.0006 6.75066 12.6256 5.12563C14.2507 3.50061 16.1798 2.21157 18.303 1.33211C20.4262 0.452651 22.7019 0 25 0C27.2981 0 29.5738 0.452651 31.697 1.33211C33.8202 2.21157 35.7493 3.50061 37.3744 5.12563C38.9994 6.75066 40.2884 8.67984 41.1679 10.803C42.0474 12.9262 42.5 15.2019 42.5 17.5C42.5 27.175 25 50 25 50ZM25 22.5C26.3261 22.5 27.5979 21.9732 28.5355 21.0355C29.4732 20.0979 30 18.8261 30 17.5C30 16.1739 29.4732 14.9021 28.5355 13.9645C27.5979 13.0268 26.3261 12.5 25 12.5C23.6739 12.5 22.4022 13.0268 21.4645 13.9645C20.5268 14.9021 20 16.1739 20 17.5C20 18.8261 20.5268 20.0979 21.4645 21.0355C22.4022 21.9732 23.6739 22.5 25 22.5Z" fill="#FFC164"/>
</g>
<defs>
<clipPath id="clip0_23_43">
<rect width="50" height="50" fill="white"/>
</clipPath>
</defs>
</svg>
