<svg width="134" height="134" viewBox="0 0 134 134" fill="none" xmlns="http://www.w3.org/2000/svg">
<g id="Component 1/Default">
<path id="Ellipse 1" d="M107 67C107 74.9113 104.654 82.6448 100.259 89.2228C95.8635 95.8008 89.6164 100.928 82.3073 103.955C74.9983 106.983 66.9556 107.775 59.1964 106.231C51.4371 104.688 44.3098 100.878 38.7157 95.2843C33.1216 89.6902 29.312 82.5629 27.7686 74.8036C26.2252 67.0444 27.0173 59.0017 30.0448 51.6927C33.0723 44.3836 38.1992 38.1365 44.7772 33.7412C51.3552 29.346 59.0887 27 67 27V39.9297C61.646 39.9297 56.4122 41.5174 51.9606 44.4919C47.5089 47.4664 44.0392 51.6942 41.9903 56.6407C39.9414 61.5871 39.4054 67.03 40.4499 72.2812C41.4944 77.5323 44.0726 82.3557 47.8584 86.1416C51.6443 89.9274 56.4677 92.5056 61.7188 93.5501C66.97 94.5946 72.4129 94.0586 77.3593 92.0097C82.3058 89.9608 86.5336 86.4911 89.5081 82.0394C92.4826 77.5878 94.0703 72.354 94.0703 67H107Z" fill="#FFC164"/>
<path id="Ellipse 3" d="M134 67C134 80.2514 130.071 93.2051 122.708 104.223C115.346 115.241 104.882 123.829 92.6398 128.9C80.3971 133.971 66.9257 135.298 53.9289 132.713C40.9322 130.127 28.994 123.746 19.6238 114.376C10.2537 105.006 3.8726 93.0678 1.28739 80.0711C-1.29782 67.0743 0.029 53.6029 5.10007 41.3602C10.1711 29.1176 18.7587 18.6536 29.7768 11.2915C40.7949 3.92948 53.7487 -1.58021e-07 67 0V21.6573C58.0321 21.6573 49.2655 24.3166 41.8089 29.2989C34.3524 34.2812 28.5407 41.3628 25.1088 49.6481C21.6769 57.9334 20.779 67.0503 22.5285 75.8459C24.2781 84.6415 28.5966 92.7208 34.9379 99.0621C41.2792 105.403 49.3584 109.722 58.1541 111.471C66.9497 113.221 76.0666 112.323 84.3519 108.891C92.6372 105.459 99.7188 99.6476 104.701 92.1911C109.683 84.7345 112.343 75.9679 112.343 67H134Z" fill="#FF9F0F"/>
<path id="Ellipse 2" d="M70 14C76.5661 14 83.0679 15.2933 89.1342 17.806C95.2005 20.3188 100.712 24.0017 105.355 28.6447C109.998 33.2876 113.681 38.7996 116.194 44.8658C118.707 50.9321 120 57.4339 120 64L95.4951 64C95.4951 60.6519 94.8356 57.3367 93.5544 54.2435C92.2731 51.1502 90.3952 48.3397 88.0278 45.9722C85.6603 43.6048 82.8498 41.7269 79.7565 40.4456C76.6633 39.1644 73.3481 38.5049 70 38.5049V14Z" fill="#FF5C5C"/>
</g>
</svg>
